<?xml version="1.0" encoding="utf-8"?>
<!-- Generator: Adobe Illustrator 19.2.0, SVG Export Plug-In . SVG Version: 6.00 Build 0)  -->
<svg version="1.1" id="Layer_1" xmlns="http://www.w3.org/2000/svg" xmlns:xlink="http://www.w3.org/1999/xlink" x="0px" y="0px"
	 width="47.324px" height="41.71px" viewBox="0 0 47.324 41.71" style="enable-background:new 0 0 47.324 41.71;"
	 xml:space="preserve">
<style type="text/css">
	.st0{fill:#050506;}
</style>
<g>
	<path class="st0" d="M35.739,17.732c-0.865-0.278-1.661-0.525-2.39-0.751c-4.86-1.508-6.679-2.072-6.679-4.774
		c0-2.144,1.519-3.423,4.063-3.423h3.228c2.241,0,3.996,1.844,3.996,4.198v0.515h8.592v-0.515c0-6.941-5.647-12.588-12.588-12.588
		h-3.228c-7.294,0-12.588,5.077-12.588,12.072c0,7.433,4.933,9.63,11.382,11.728c1.014,0.33,1.975,0.619,2.823,0.874
		c4.138,1.243,6.417,1.928,6.417,4.572c0,2.202-1.62,3.681-4.031,3.681h-4.39c-2.253,0-4.017-1.844-4.017-4.198v-1.806h-8.571v1.806
		c0,6.941,5.647,12.588,12.588,12.588h4.39c7.059,0,12.588-5.359,12.588-12.201C47.324,22.031,42.523,19.911,35.739,17.732z"/>
	<g>
		<path class="st0" d="M7.135,0C3.201,0,0,3.201,0,7.135s3.201,7.135,7.135,7.135s7.135-3.201,7.135-7.135S11.069,0,7.135,0z
			 M7.135,13.162c-3.323,0-6.027-2.704-6.027-6.027c0-3.323,2.704-6.027,6.027-6.027s6.027,2.704,6.027,6.027
			C13.162,10.458,10.458,13.162,7.135,13.162z"/>
		<path class="st0" d="M10.53,5.599c0-1.311-1.189-2.377-2.651-2.377H4.226v7.946h1.108v-3.2L6.57,7.972l2.397,3.216h1.398
			l-2.413-3.22C8.679,7.934,9.364,7.674,9.85,7.19C10.288,6.754,10.53,6.188,10.53,5.599z M9.067,6.405
			C8.77,6.701,8.337,6.861,7.871,6.868l-2.537-0.01V4.33h2.544c0.851,0,1.543,0.569,1.543,1.269
			C9.421,5.974,9.229,6.244,9.067,6.405z"/>
	</g>
</g>
</svg>
