<?xml version="1.0" encoding="utf-8"?>
<!-- Generator: Adobe Illustrator 19.2.0, SVG Export Plug-In . SVG Version: 6.00 Build 0)  -->
<svg version="1.1" id="Layer_1" xmlns="http://www.w3.org/2000/svg" xmlns:xlink="http://www.w3.org/1999/xlink" x="0px" y="0px"
	 width="190.992px" height="17.121px" viewBox="0 0 190.992 17.121" style="enable-background:new 0 0 190.992 17.121;"
	 xml:space="preserve">
<g>
	<path d="M97.858,7.322c-0.354-0.114-0.679-0.214-0.977-0.307c-1.986-0.616-2.729-0.847-2.729-1.951c0-0.876,0.621-1.399,1.66-1.399
		h1.319c0.916,0,1.633,0.753,1.633,1.715v0.211h3.511V5.381c0-2.836-2.308-5.144-5.144-5.144h-1.319
		c-2.981,0-5.144,2.075-5.144,4.933c0,3.038,2.016,3.935,4.651,4.793c0.414,0.135,0.807,0.253,1.153,0.357
		c1.691,0.508,2.622,0.788,2.622,1.868c0,0.9-0.662,1.504-1.647,1.504h-1.794c-0.92,0-1.641-0.753-1.641-1.715v-0.738H90.51v0.738
		c0,2.836,2.308,5.144,5.144,5.144h1.794c2.885,0,5.144-2.19,5.144-4.986C102.592,9.079,100.63,8.213,97.858,7.322z"/>
	<path d="M137.133,16.725h4.356l-4.64-5.675c2.299-0.58,4.005-2.665,4.005-5.142c0-2.924-2.379-5.327-5.303-5.327h-7.097
		l-0.009,16.144h3.483v-5.514h0.799L137.133,16.725z M131.928,3.905h3.623c1.091,0,1.979,0.912,1.979,2.003
		s-0.888,1.979-1.979,1.979h-3.623V3.905z"/>
	<polygon points="23.92,4.046 23.92,0.579 14.475,0.579 14.475,4.046 17.509,4.046 17.509,13.271 14.475,13.271 14.475,16.725 
		23.92,16.725 23.92,13.271 20.885,13.271 20.885,4.046 	"/>
	<polygon points="52.466,0.58 39.855,0.58 39.855,4.062 44.369,4.062 44.369,16.726 47.951,16.726 47.951,4.062 52.466,4.062 	"/>
	<path d="M78.719,16.725h4.356l-4.64-5.675c2.299-0.58,4.005-2.665,4.005-5.142c0-2.924-2.379-5.327-5.303-5.327h-7.097
		l-0.009,16.144h3.483v-5.514h0.799L78.719,16.725z M73.515,3.905h3.623c1.091,0,1.979,0.912,1.979,2.003s-0.888,1.979-1.979,1.979
		h-3.623V3.905z"/>
	<path d="M7.348,7.322C6.994,7.209,6.669,7.108,6.371,7.016C4.385,6.4,3.642,6.169,3.642,5.065c0-0.876,0.621-1.399,1.66-1.399
		h1.319c0.916,0,1.633,0.753,1.633,1.715v0.211h3.511V5.381c0-2.836-2.308-5.144-5.144-5.144H5.302
		c-2.981,0-5.144,2.075-5.144,4.933c0,3.038,2.016,3.935,4.651,4.793c0.414,0.135,0.807,0.253,1.153,0.357
		c1.691,0.508,2.622,0.788,2.622,1.868c0,0.9-0.662,1.504-1.647,1.504H5.144c-0.92,0-1.641-0.753-1.641-1.715v-0.738H0v0.738
		c0,2.836,2.308,5.144,5.144,5.144h1.794c2.885,0,5.144-2.19,5.144-4.986C12.082,9.079,10.12,8.213,7.348,7.322z"/>
	<path d="M33.712,7.322c-0.354-0.114-0.679-0.214-0.977-0.307c-1.986-0.616-2.729-0.847-2.729-1.951c0-0.876,0.621-1.399,1.66-1.399
		h1.319c0.916,0,1.633,0.753,1.633,1.715v0.211h3.511V5.381c0-2.836-2.308-5.144-5.144-5.144h-1.319
		c-2.981,0-5.144,2.075-5.144,4.933c0,3.038,2.016,3.935,4.651,4.793c0.414,0.135,0.807,0.253,1.153,0.357
		c1.691,0.508,2.622,0.788,2.622,1.868c0,0.9-0.662,1.504-1.647,1.504h-1.794c-0.92,0-1.641-0.753-1.641-1.715v-0.738h-3.503v0.738
		c0,2.836,2.308,5.144,5.144,5.144h1.794c2.885,0,5.144-2.19,5.144-4.986C38.446,9.079,36.484,8.213,33.712,7.322z"/>
	<g>
		<g>
			<path d="M150.146,17.107h-0.688c-3.45,0-5.979-2.634-5.979-5.994V6.216c0-3.36,2.528-5.923,5.979-5.923h0.688
				c3.45,0,5.979,2.563,5.979,5.923v4.898C156.125,14.474,153.596,17.107,150.146,17.107z M149.738,3.656
				c-1.545,0-2.642,1.224-2.642,2.729v4.561c0,1.505,1.096,2.729,2.642,2.729h0.129c1.545,0,2.642-1.224,2.642-2.729V6.385
				c0-1.505-1.096-2.729-2.642-2.729H149.738z"/>
		</g>
	</g>
	<path d="M187.193,16.719h3.799L186.22,0.58h-4.951L176.5,16.719h3.799l0.821-3.2h5.248L187.193,16.719z M181.967,10.222
		l1.483-5.778h0.288l0.008-0.028l0.008,0.028h0.278l1.489,5.778H181.967z"/>
	<path d="M122.547,16.719h3.799L121.572,0.58h-4.951l-4.77,16.139h3.799l0.821-3.2h5.25L122.547,16.719z M117.318,10.222
		l1.483-5.778h0.288l0.008-0.028l0.008,0.028h0.278l1.49,5.778H117.318z"/>
	<polygon points="169.938,0.58 166.955,6.079 166.462,6.079 163.48,0.58 159.292,0.58 159.292,16.719 162.775,16.719 162.775,6.356 
		163.185,6.356 165.299,10.037 168.119,10.037 170.232,6.356 170.642,6.356 170.642,16.719 174.125,16.719 174.125,0.58 	"/>
	<polygon points="67.113,4.062 67.113,0.58 55.087,0.58 55.087,16.673 55.087,16.726 67.113,16.726 67.113,13.244 58.587,13.244 
		58.587,10.15 65.545,10.15 65.545,6.852 58.587,6.852 58.587,4.062 	"/>
	<g>
		<path d="M89.597,3.031C89.597,1.359,88.238,0,86.566,0c-1.671,0-3.03,1.359-3.03,3.031c0,1.671,1.359,3.03,3.03,3.03
			C88.238,6.061,89.597,4.702,89.597,3.031z M86.566,5.469c-1.343,0-2.438-1.094-2.438-2.438c0-1.345,1.094-2.439,2.438-2.439
			c1.345,0,2.439,1.094,2.439,2.439C89.005,4.375,87.91,5.469,86.566,5.469z"/>
		<path d="M87.74,3.1c0.195-0.192,0.303-0.444,0.303-0.708c0-0.581-0.524-1.054-1.168-1.054h-1.584v3.434h0.592V3.443l0.414,0.001
			l0.995,1.337h0.747l-1.01-1.349C87.312,3.396,87.561,3.281,87.74,3.1z M86.875,1.931c0.317,0,0.574,0.207,0.574,0.461
			c0,0.135-0.069,0.231-0.127,0.287V2.68c-0.109,0.109-0.269,0.17-0.45,0.173l-0.989-0.004V1.931H86.875z"/>
	</g>
</g>
</svg>
